<svg width="32" height="32" viewBox="0 0 32 32" fill="none" xmlns="http://www.w3.org/2000/svg">
<g clip-path="url(#clip0_243_21015)">
<mask id="mask0_243_21015" style="mask-type:luminance" maskUnits="userSpaceOnUse" x="0" y="1" width="32" height="30">
<path d="M32 1H0V31H32V1Z" fill="white"/>
</mask>
<g mask="url(#mask0_243_21015)">
<path d="M16 24.5C7.03 24.5 0 20.765 0 16C0 11.235 7.03 7.5 16 7.5C24.97 7.5 32 11.235 32 16C32 20.765 24.97 24.5 16 24.5ZM16 10C9.615 10 2.5 12.465 2.5 16C2.5 19.535 9.615 22 16 22C22.385 22 29.5 19.535 29.5 16C29.5 12.465 22.385 10 16 10Z" fill="#4EC375"/>
<path d="M21.415 30.5199C17.405 30.5199 12.275 26.5549 8.63497 20.2499C6.56997 16.6749 5.31497 12.8999 5.09497 9.61489C4.85497 6.01489 5.88497 3.36489 7.99497 2.14489C10.105 0.924883 12.92 1.35988 15.915 3.36489C18.65 5.19989 21.29 8.17489 23.355 11.7499C27.84 19.5199 28.12 27.4749 23.995 29.8549C23.215 30.3049 22.345 30.5199 21.41 30.5199H21.415ZM10.625 3.96989C10.105 3.96989 9.63997 4.07989 9.24997 4.30989C8.02497 5.01489 7.41997 6.88988 7.58997 9.44988C7.78497 12.3599 8.92497 15.7549 10.8 19.0049C13.99 24.5349 19.685 29.4649 22.745 27.6949C25.805 25.9249 24.385 18.5349 21.19 13.0049C19.315 9.75489 16.945 7.06988 14.525 5.44988C13.075 4.47988 11.725 3.97989 10.62 3.97989L10.625 3.96989Z" fill="#1463FF"/>
<path d="M10.62 30.5348C9.66505 30.5348 8.78505 30.3098 8.00005 29.8548C5.89005 28.6348 4.85505 25.9848 5.10005 22.3848C5.32005 19.0998 6.57505 15.3248 8.64005 11.7498C13.125 3.97985 19.875 -0.240154 24 2.14485C28.125 4.52985 27.8451 12.4798 23.3601 20.2498C21.2951 23.8248 18.655 26.7998 15.92 28.6348C14.04 29.8948 12.23 30.5348 10.62 30.5348ZM21.31 3.94485C18.13 3.94485 13.545 8.24985 10.8 12.9998C8.92505 16.2498 7.78505 19.6398 7.59005 22.5548C7.42005 25.1148 8.02505 26.9848 9.25005 27.6948C10.475 28.3998 12.395 27.9898 14.53 26.5598C16.955 24.9348 19.32 22.2498 21.195 19.0048C24.385 13.4748 25.81 6.07985 22.75 4.31485C22.32 4.06485 21.835 3.94985 21.31 3.94985V3.94485Z" fill="#FFBC00"/>
<path d="M16 22C9.615 22 2.5 19.535 2.5 16H0C0 20.765 7.03 24.5 16 24.5V22Z" fill="#4EC375"/>
<path d="M16.5749 7.0749C15.9049 6.4549 15.2199 5.9049 14.5299 5.4399C13.8499 4.9849 13.1899 4.6299 12.5699 4.3849L13.3999 2.0249C14.2199 2.3399 15.0649 2.7849 15.9249 3.3649C16.8299 3.9749 17.7299 4.7049 18.5999 5.5449L16.5799 7.0749H16.5749Z" fill="#1463FF"/>
<path d="M18.58 27.24C17.5 26.66 16.375 25.795 15.285 24.75L13.37 26.415C14.49 27.5 15.64 28.39 16.78 29.06L18.585 27.24H18.58Z" fill="#1463FF"/>
<path d="M27.52 12.945C24.96 11.125 20.315 10 16 10V7.5C21.025 7.5 25.44 8.67 28.355 10.54L27.52 12.945Z" fill="#4EC375"/>
</g>
</g>
<defs>
<clipPath id="clip0_243_21015">
<rect width="32" height="30" fill="white" transform="translate(0 1)"/>
</clipPath>
</defs>
</svg>
