<svg width="108" height="108" viewBox="0 0 108 108" fill="none" xmlns="http://www.w3.org/2000/svg">
<rect width="108" height="108" rx="32" fill="#34353A"/>
<path fill-rule="evenodd" clip-rule="evenodd" d="M33.544 88.488C35.2707 87.3913 36.8729 86.214 38.3469 84.9492C39.8192 83.6914 40.8531 82.6126 41.4431 81.7163C42.0312 80.8217 41.5261 80.5784 39.9275 80.9863C38.3253 81.3942 37.7569 80.3548 38.2206 77.8751C38.6825 75.3954 39.9906 72.0802 42.1377 67.9313C44.2866 63.7842 47.1932 59.0879 50.8577 53.8423C54.5222 48.5966 58.8398 43.3314 63.8123 38.0446C64.2327 37.5562 64.4005 37.0284 64.3175 36.4577C64.2327 35.8905 64.0018 35.2983 63.6229 34.6901C63.244 34.08 62.7388 33.4914 62.1073 32.9206C61.4758 32.3535 60.8227 31.8651 60.1497 31.4572C64.3608 31.3785 68.4475 31.4375 72.4078 31.6397C76.3664 31.8436 79.9479 32.1495 83.1504 32.5557C83.9912 32.638 84.7292 32.1495 85.3625 31.0922C85.9958 30.0366 86.4793 28.7753 86.8167 27.3101C87.1523 25.8466 87.3002 24.4028 87.2587 22.9805C87.2154 21.5581 86.8997 20.5223 86.3115 19.8692C85.8027 19.3826 84.2871 19.0785 81.7593 18.955C79.2316 18.8334 76.0921 18.8334 72.3447 18.955C68.5936 19.0767 64.5286 19.3629 60.1497 19.8102C55.7671 20.2575 51.4928 20.8067 47.3214 21.4562C43.1499 22.1074 39.3375 22.8803 35.8823 23.7748C32.4271 24.6694 29.8164 25.6462 28.0464 26.7018C27.5412 26.9451 27.1623 27.5963 26.9097 28.6537C26.6571 29.711 26.6355 30.7684 26.8466 31.8257C27.0559 32.8831 27.5195 33.7365 28.2358 34.3877C28.9503 35.0389 30.0257 35.1194 31.4601 34.6328C34.0708 33.7383 37.3564 33.0459 41.3168 32.5592C45.2753 32.0708 49.5316 31.747 54.0819 31.5842C52.3119 32.9672 50.2894 35.0407 48.016 37.8049C45.7408 40.5708 43.3808 43.7017 40.9379 47.1976C38.4949 50.6953 36.1367 54.3772 33.8615 58.2381C31.5864 62.1007 29.5205 65.7826 27.6693 69.2785C25.8145 72.7744 24.3404 75.9071 23.2452 78.6712C22.1483 81.4336 21.6016 83.4678 21.6016 84.7685C21.6016 85.0118 21.874 85.4394 22.4225 86.0495C22.9692 86.6595 23.6638 87.2696 24.5082 87.8779C25.349 88.488 26.2764 89.0175 27.2886 89.4648C27.8451 89.7102 28.3759 89.8888 28.8816 89.9998H30.717C31.3697 89.7748 32.312 89.2709 33.544 88.488Z" fill="#FFEDDB"/>
</svg>
